G75*
G70*
%OFA0B0*%
%FSLAX24Y24*%
%IPPOS*%
%LPD*%
%AMOC8*
5,1,8,0,0,1.08239X$1,22.5*
%
%ADD10OC8,0.0680*%
%ADD11C,0.0740*%
%ADD12C,0.0594*%
%ADD13C,0.0650*%
%ADD14C,0.0768*%
%ADD15C,0.0100*%
%ADD16C,0.0240*%
D10*
X006301Y007001D03*
X007301Y007001D03*
X008301Y007001D03*
X009301Y007001D03*
X009301Y010001D03*
X008301Y010001D03*
X007301Y010001D03*
X006301Y010001D03*
D11*
X004081Y008891D03*
X001521Y008891D03*
X001521Y007111D03*
X004081Y007111D03*
X005801Y005501D03*
X007801Y005501D03*
X009801Y005501D03*
X009801Y001501D03*
X007801Y001501D03*
X005801Y001501D03*
D12*
X003982Y003501D03*
X003194Y003501D03*
X002407Y003501D03*
X001620Y003501D03*
D13*
X010801Y008001D03*
X010801Y009001D03*
D14*
X012927Y005501D03*
X020801Y005501D03*
D15*
X020701Y005521D01*
X010861Y007921D02*
X010801Y008001D01*
X010861Y008881D02*
X010801Y009001D01*
X006301Y010001D02*
X006301Y010081D01*
X004141Y009121D02*
X004081Y009121D01*
X006301Y007001D02*
X006301Y006981D01*
X005821Y005521D02*
X005801Y005501D01*
X007741Y005521D02*
X007801Y005501D01*
D16*
X002301Y000801D02*
X015751Y000801D01*
X020801Y005501D01*
X020701Y005521D02*
X017341Y008881D01*
X010861Y008881D01*
X010801Y009001D02*
X010861Y009121D01*
X009871Y010661D01*
X006881Y010661D01*
X006301Y010081D01*
X006301Y010001D02*
X006301Y009841D01*
X005581Y009121D01*
X004141Y009121D01*
X004081Y008891D01*
X004081Y009121D01*
X004141Y007201D02*
X004081Y007111D01*
X004141Y007201D02*
X005581Y007201D01*
X008221Y009841D01*
X008301Y010001D01*
X010621Y007921D02*
X010801Y008001D01*
X010861Y007921D02*
X010861Y007441D01*
X012781Y005521D01*
X012927Y005501D01*
X009801Y005501D02*
X009661Y005521D01*
X009661Y005761D01*
X008461Y006961D01*
X008301Y007001D01*
X007741Y006721D02*
X007741Y005521D01*
X005821Y005521D02*
X005821Y006481D01*
X006301Y006961D01*
X006301Y007001D01*
X007301Y007001D02*
X007501Y006961D01*
X007741Y006721D01*
X009301Y007001D02*
X009421Y007201D01*
X009901Y007201D01*
X010621Y007921D01*
X004141Y003361D02*
X003982Y003501D01*
X004141Y003361D02*
X009661Y003361D01*
X009661Y001681D01*
X009801Y001501D01*
X007801Y001501D02*
X007741Y001681D01*
X007261Y002161D01*
X004621Y002161D01*
X003221Y002961D01*
X003194Y003501D01*
X002461Y003601D02*
X002407Y003501D01*
X002461Y003601D02*
X002461Y004491D01*
X000801Y004501D01*
X000801Y002501D01*
X002301Y000801D01*
X003421Y001681D02*
X005581Y001681D01*
X005801Y001501D01*
X003421Y001681D02*
X001601Y002951D01*
X001620Y003501D01*
M02*
