G75*
G70*
%OFA0B0*%
%FSLAX24Y24*%
%IPPOS*%
%LPD*%
%AMOC8*
5,1,8,0,0,1.08239X$1,22.5*
%
%ADD10C,0.0000*%
%ADD11C,0.0110*%
%ADD12C,0.0080*%
%ADD13C,0.0100*%
%ADD14C,0.0050*%
%ADD15C,0.0040*%
%ADD16C,0.0030*%
D10*
X000101Y000101D02*
X000101Y012097D01*
X022121Y012097D01*
X022121Y000101D01*
X000101Y000101D01*
D11*
X000656Y010956D02*
X000656Y011546D01*
X000656Y011251D02*
X001049Y011251D01*
X001049Y011546D02*
X001049Y010956D01*
X001497Y010956D02*
X001497Y011546D01*
X001300Y011546D02*
X001694Y011546D01*
X001945Y011546D02*
X002339Y011546D01*
X002142Y011546D02*
X002142Y010956D01*
X002589Y010956D02*
X002589Y011546D01*
X002885Y011546D01*
X002983Y011448D01*
X002983Y011251D01*
X002885Y011153D01*
X002589Y011153D01*
X003234Y011251D02*
X003234Y011349D01*
X003332Y011349D01*
X003332Y011251D01*
X003234Y011251D01*
X003234Y011054D02*
X003234Y010956D01*
X003332Y010956D01*
X003332Y011054D01*
X003234Y011054D01*
X003556Y010956D02*
X003950Y011546D01*
X004201Y010956D02*
X004594Y011546D01*
X004845Y011546D02*
X004845Y010956D01*
X005239Y010956D02*
X005239Y011546D01*
X005239Y011251D02*
X004845Y011251D01*
X005490Y011251D02*
X005883Y011251D01*
X005883Y011349D02*
X005883Y010956D01*
X006134Y011054D02*
X006233Y010956D01*
X006429Y010956D01*
X006528Y011054D01*
X006779Y010956D02*
X006779Y011546D01*
X006528Y011448D02*
X006429Y011546D01*
X006233Y011546D01*
X006134Y011448D01*
X006134Y011054D01*
X005883Y011349D02*
X005687Y011546D01*
X005490Y011349D01*
X005490Y010956D01*
X006779Y011153D02*
X007172Y011546D01*
X007423Y011546D02*
X007423Y010956D01*
X007817Y010956D01*
X008068Y010956D02*
X008068Y011349D01*
X008265Y011546D01*
X008461Y011349D01*
X008461Y010956D01*
X008712Y010956D02*
X009008Y010956D01*
X009106Y011054D01*
X009106Y011153D01*
X009008Y011251D01*
X008712Y011251D01*
X008461Y011251D02*
X008068Y011251D01*
X008712Y010956D02*
X008712Y011546D01*
X009008Y011546D01*
X009106Y011448D01*
X009106Y011349D01*
X009008Y011251D01*
X009357Y011054D02*
X009455Y011054D01*
X009455Y010956D01*
X009357Y010956D01*
X009357Y011054D01*
X009876Y010956D02*
X009876Y011546D01*
X009679Y011546D02*
X010073Y011546D01*
X010324Y011448D02*
X010324Y011054D01*
X010422Y010956D01*
X010619Y010956D01*
X010717Y011054D01*
X010717Y011448D01*
X010619Y011546D01*
X010422Y011546D01*
X010324Y011448D01*
X013106Y011546D02*
X013106Y010956D01*
X013106Y011153D02*
X013401Y011153D01*
X013499Y011251D01*
X013499Y011448D01*
X013401Y011546D01*
X013106Y011546D01*
X013303Y011153D02*
X013499Y010956D01*
X013750Y011054D02*
X013849Y010956D01*
X014046Y010956D01*
X014144Y011054D01*
X014144Y011251D01*
X013947Y011251D01*
X013750Y011448D02*
X013750Y011054D01*
X013750Y011448D02*
X013849Y011546D01*
X014046Y011546D01*
X014144Y011448D01*
X014395Y011546D02*
X014690Y011546D01*
X014789Y011448D01*
X014789Y011349D01*
X014690Y011251D01*
X014395Y011251D01*
X014690Y011251D02*
X014789Y011153D01*
X014789Y011054D01*
X014690Y010956D01*
X014395Y010956D01*
X014395Y011546D01*
X015684Y011546D02*
X015684Y010956D01*
X015979Y010956D01*
X016078Y011054D01*
X016078Y011153D01*
X015979Y011251D01*
X015684Y011251D01*
X015979Y011251D02*
X016078Y011349D01*
X016078Y011448D01*
X015979Y011546D01*
X015684Y011546D01*
X016328Y011546D02*
X016328Y010956D01*
X016722Y010956D01*
X016973Y010956D02*
X017170Y010956D01*
X017071Y010956D02*
X017071Y011546D01*
X016973Y011546D02*
X017170Y011546D01*
X017403Y011546D02*
X017796Y010956D01*
X017796Y011546D01*
X018047Y011546D02*
X018047Y010956D01*
X018146Y011251D02*
X018441Y010956D01*
X018692Y010956D02*
X018889Y010956D01*
X018790Y010956D02*
X018790Y011546D01*
X018692Y011546D02*
X018889Y011546D01*
X019121Y011546D02*
X019121Y010956D01*
X019515Y010956D01*
X019318Y011251D02*
X019121Y011251D01*
X019121Y011546D02*
X019515Y011546D01*
X020410Y011546D02*
X020410Y011153D01*
X020607Y010956D01*
X020804Y011153D01*
X020804Y011546D01*
X021055Y011349D02*
X021252Y011546D01*
X021252Y010956D01*
X021055Y010956D02*
X021449Y010956D01*
X018441Y011546D02*
X018047Y011153D01*
X017403Y010956D02*
X017403Y011546D01*
X007172Y010956D02*
X006877Y011251D01*
D12*
X005801Y009501D02*
X009801Y009501D01*
X009801Y009101D01*
X009801Y008901D01*
X009801Y009101D02*
X009801Y007501D01*
X005801Y007501D01*
X005801Y009501D01*
X004001Y009001D02*
X004001Y008401D01*
X004001Y007596D01*
X004001Y007601D02*
X004001Y007001D01*
X003801Y006801D01*
X003651Y006801D01*
X001951Y006801D01*
X001801Y006801D01*
X001601Y007001D01*
X001601Y007601D01*
X001601Y007608D02*
X001601Y008401D01*
X001601Y009001D01*
X001801Y009201D01*
X001951Y009201D01*
X003651Y009201D01*
X003801Y009201D01*
X004001Y009001D01*
X003801Y008501D02*
X003801Y008201D01*
X003651Y008151D02*
X003801Y007801D01*
X003801Y007501D01*
X002101Y008001D02*
X002103Y008053D01*
X002109Y008105D01*
X002119Y008157D01*
X002132Y008207D01*
X002149Y008257D01*
X002170Y008305D01*
X002195Y008351D01*
X002223Y008395D01*
X002254Y008437D01*
X002288Y008477D01*
X002325Y008514D01*
X002365Y008548D01*
X002407Y008579D01*
X002451Y008607D01*
X002497Y008632D01*
X002545Y008653D01*
X002595Y008670D01*
X002645Y008683D01*
X002697Y008693D01*
X002749Y008699D01*
X002801Y008701D01*
X002853Y008699D01*
X002905Y008693D01*
X002957Y008683D01*
X003007Y008670D01*
X003057Y008653D01*
X003105Y008632D01*
X003151Y008607D01*
X003195Y008579D01*
X003237Y008548D01*
X003277Y008514D01*
X003314Y008477D01*
X003348Y008437D01*
X003379Y008395D01*
X003407Y008351D01*
X003432Y008305D01*
X003453Y008257D01*
X003470Y008207D01*
X003483Y008157D01*
X003493Y008105D01*
X003499Y008053D01*
X003501Y008001D01*
X003499Y007949D01*
X003493Y007897D01*
X003483Y007845D01*
X003470Y007795D01*
X003453Y007745D01*
X003432Y007697D01*
X003407Y007651D01*
X003379Y007607D01*
X003348Y007565D01*
X003314Y007525D01*
X003277Y007488D01*
X003237Y007454D01*
X003195Y007423D01*
X003151Y007395D01*
X003105Y007370D01*
X003057Y007349D01*
X003007Y007332D01*
X002957Y007319D01*
X002905Y007309D01*
X002853Y007303D01*
X002801Y007301D01*
X002749Y007303D01*
X002697Y007309D01*
X002645Y007319D01*
X002595Y007332D01*
X002545Y007349D01*
X002497Y007370D01*
X002451Y007395D01*
X002407Y007423D01*
X002365Y007454D01*
X002325Y007488D01*
X002288Y007525D01*
X002254Y007565D01*
X002223Y007607D01*
X002195Y007651D01*
X002170Y007697D01*
X002149Y007745D01*
X002132Y007795D01*
X002119Y007845D01*
X002109Y007897D01*
X002103Y007949D01*
X002101Y008001D01*
X005328Y004741D02*
X005328Y002261D01*
X006273Y002261D01*
X006273Y004741D01*
X005328Y004741D01*
X007328Y004741D02*
X007328Y002261D01*
X008273Y002261D01*
X008273Y004741D01*
X007328Y004741D01*
X009328Y004741D02*
X009328Y002261D01*
X010273Y002261D01*
X010273Y004741D01*
X009328Y004741D01*
X012139Y003926D02*
X012139Y007076D01*
X013320Y007076D01*
X011051Y008501D02*
X010551Y008501D01*
X013297Y005461D02*
X013302Y005654D01*
X013316Y005847D01*
X013340Y006039D01*
X013373Y006229D01*
X013415Y006418D01*
X013467Y006604D01*
X013527Y006787D01*
X013597Y006968D01*
X013675Y007144D01*
X013762Y007317D01*
X013857Y007485D01*
X013961Y007648D01*
X014072Y007806D01*
X014191Y007959D01*
X014317Y008105D01*
X014450Y008245D01*
X014590Y008378D01*
X014736Y008504D01*
X014889Y008623D01*
X015047Y008734D01*
X015210Y008838D01*
X015378Y008933D01*
X015551Y009020D01*
X015727Y009098D01*
X015908Y009168D01*
X016091Y009228D01*
X016277Y009280D01*
X016466Y009322D01*
X016656Y009355D01*
X016848Y009379D01*
X017041Y009393D01*
X017234Y009398D01*
X017427Y009393D01*
X017620Y009379D01*
X017812Y009355D01*
X018002Y009322D01*
X018191Y009280D01*
X018377Y009228D01*
X018560Y009168D01*
X018741Y009098D01*
X018917Y009020D01*
X019090Y008933D01*
X019258Y008838D01*
X019421Y008734D01*
X019579Y008623D01*
X019732Y008504D01*
X019878Y008378D01*
X020018Y008245D01*
X020151Y008105D01*
X020277Y007959D01*
X020396Y007806D01*
X020507Y007648D01*
X020611Y007485D01*
X020706Y007317D01*
X020793Y007144D01*
X020871Y006968D01*
X020941Y006787D01*
X021001Y006604D01*
X021053Y006418D01*
X021095Y006229D01*
X021128Y006039D01*
X021152Y005847D01*
X021166Y005654D01*
X021171Y005461D01*
X021166Y005268D01*
X021152Y005075D01*
X021128Y004883D01*
X021095Y004693D01*
X021053Y004504D01*
X021001Y004318D01*
X020941Y004135D01*
X020871Y003954D01*
X020793Y003778D01*
X020706Y003605D01*
X020611Y003437D01*
X020507Y003274D01*
X020396Y003116D01*
X020277Y002963D01*
X020151Y002817D01*
X020018Y002677D01*
X019878Y002544D01*
X019732Y002418D01*
X019579Y002299D01*
X019421Y002188D01*
X019258Y002084D01*
X019090Y001989D01*
X018917Y001902D01*
X018741Y001824D01*
X018560Y001754D01*
X018377Y001694D01*
X018191Y001642D01*
X018002Y001600D01*
X017812Y001567D01*
X017620Y001543D01*
X017427Y001529D01*
X017234Y001524D01*
X017041Y001529D01*
X016848Y001543D01*
X016656Y001567D01*
X016466Y001600D01*
X016277Y001642D01*
X016091Y001694D01*
X015908Y001754D01*
X015727Y001824D01*
X015551Y001902D01*
X015378Y001989D01*
X015210Y002084D01*
X015047Y002188D01*
X014889Y002299D01*
X014736Y002418D01*
X014590Y002544D01*
X014450Y002677D01*
X014317Y002817D01*
X014191Y002963D01*
X014072Y003116D01*
X013961Y003274D01*
X013857Y003437D01*
X013762Y003605D01*
X013675Y003778D01*
X013597Y003954D01*
X013527Y004135D01*
X013467Y004318D01*
X013415Y004504D01*
X013373Y004693D01*
X013340Y004883D01*
X013316Y005075D01*
X013302Y005268D01*
X013297Y005461D01*
X013320Y003926D02*
X012139Y003926D01*
X013320Y003926D02*
X013402Y003736D01*
X013493Y003550D01*
X013593Y003368D01*
X013701Y003192D01*
X013818Y003021D01*
X013943Y002856D01*
X014077Y002697D01*
X014217Y002545D01*
X014365Y002400D01*
X014520Y002262D01*
X014682Y002133D01*
X014849Y002011D01*
X015023Y001897D01*
X015201Y001793D01*
X015385Y001697D01*
X015573Y001610D01*
X015765Y001532D01*
X015961Y001464D01*
X016160Y001405D01*
X016361Y001357D01*
X016565Y001318D01*
X016770Y001289D01*
X016976Y001270D01*
X017183Y001262D01*
X017390Y001263D01*
X017597Y001275D01*
X017803Y001296D01*
X018008Y001328D01*
X018211Y001370D01*
X018412Y001421D01*
X018609Y001482D01*
X018804Y001553D01*
X018995Y001634D01*
X019182Y001723D01*
X019364Y001822D01*
X019541Y001929D01*
X019713Y002045D01*
X019879Y002169D01*
X020039Y002301D01*
X020192Y002441D01*
X020338Y002588D01*
X020476Y002742D01*
X020607Y002902D01*
X020730Y003069D01*
X020845Y003242D01*
X020951Y003420D01*
X021048Y003603D01*
X021136Y003790D01*
X021215Y003982D01*
X021285Y004177D01*
X021345Y004375D01*
X021395Y004576D01*
X021435Y004779D01*
X021465Y004984D01*
X021486Y005190D01*
X021496Y005397D01*
X021496Y005605D01*
X021486Y005812D01*
X021465Y006018D01*
X021435Y006223D01*
X021395Y006426D01*
X021345Y006627D01*
X021285Y006825D01*
X021215Y007020D01*
X021136Y007212D01*
X021048Y007399D01*
X020951Y007582D01*
X020845Y007760D01*
X020730Y007933D01*
X020607Y008100D01*
X020476Y008260D01*
X020338Y008414D01*
X020192Y008561D01*
X020039Y008701D01*
X019879Y008833D01*
X019713Y008957D01*
X019541Y009073D01*
X019364Y009180D01*
X019182Y009279D01*
X018995Y009368D01*
X018804Y009449D01*
X018609Y009520D01*
X018412Y009581D01*
X018211Y009632D01*
X018008Y009674D01*
X017803Y009706D01*
X017597Y009727D01*
X017390Y009739D01*
X017183Y009740D01*
X016976Y009732D01*
X016770Y009713D01*
X016565Y009684D01*
X016361Y009645D01*
X016160Y009597D01*
X015961Y009538D01*
X015765Y009470D01*
X015573Y009392D01*
X015385Y009305D01*
X015201Y009209D01*
X015023Y009105D01*
X014849Y008991D01*
X014682Y008869D01*
X014520Y008740D01*
X014365Y008602D01*
X014217Y008457D01*
X014077Y008305D01*
X013943Y008146D01*
X013818Y007981D01*
X013701Y007810D01*
X013593Y007634D01*
X013493Y007452D01*
X013402Y007266D01*
X013320Y007076D01*
D13*
X009018Y009001D02*
X009020Y009034D01*
X009026Y009067D01*
X009036Y009100D01*
X009049Y009130D01*
X009066Y009159D01*
X009087Y009186D01*
X009110Y009210D01*
X009136Y009231D01*
X009164Y009249D01*
X009195Y009263D01*
X009226Y009274D01*
X009259Y009281D01*
X009293Y009284D01*
X009326Y009283D01*
X009359Y009278D01*
X009392Y009269D01*
X009423Y009256D01*
X009452Y009240D01*
X009479Y009221D01*
X009504Y009198D01*
X009526Y009173D01*
X009545Y009145D01*
X009560Y009115D01*
X009572Y009084D01*
X009580Y009051D01*
X009584Y009018D01*
X009584Y008984D01*
X009580Y008951D01*
X009572Y008918D01*
X009560Y008887D01*
X009545Y008857D01*
X009526Y008829D01*
X009504Y008804D01*
X009479Y008781D01*
X009452Y008762D01*
X009423Y008746D01*
X009392Y008733D01*
X009359Y008724D01*
X009326Y008719D01*
X009293Y008718D01*
X009259Y008721D01*
X009226Y008728D01*
X009195Y008739D01*
X009164Y008753D01*
X009136Y008771D01*
X009110Y008792D01*
X009087Y008816D01*
X009066Y008843D01*
X009049Y008872D01*
X009036Y008902D01*
X009026Y008935D01*
X009020Y008968D01*
X009018Y009001D01*
D14*
X008915Y008726D02*
X008615Y008726D01*
X008615Y008501D01*
X008765Y008576D01*
X008840Y008576D01*
X008915Y008501D01*
X008915Y008351D01*
X008840Y008276D01*
X008690Y008276D01*
X008615Y008351D01*
X008455Y008276D02*
X008155Y008276D01*
X008455Y008576D01*
X008455Y008651D01*
X008380Y008726D01*
X008230Y008726D01*
X008155Y008651D01*
X007995Y008651D02*
X007845Y008501D01*
X007845Y008276D01*
X007845Y008501D02*
X007695Y008651D01*
X007695Y008726D01*
X007534Y008726D02*
X007534Y008276D01*
X007234Y008726D01*
X007234Y008276D01*
X007077Y008276D02*
X006927Y008276D01*
X007002Y008276D02*
X007002Y008726D01*
X006927Y008726D02*
X007077Y008726D01*
X006767Y008726D02*
X006467Y008726D01*
X006617Y008726D02*
X006617Y008276D01*
X005526Y008330D02*
X005526Y008180D01*
X005451Y008105D01*
X005075Y008105D01*
X005075Y008405D02*
X005451Y008405D01*
X005526Y008330D01*
X005526Y008565D02*
X005526Y008866D01*
X005526Y008716D02*
X005075Y008716D01*
X005226Y008565D01*
X003166Y009526D02*
X002865Y009526D01*
X003016Y009526D02*
X003016Y009976D01*
X002865Y009826D01*
X002705Y009901D02*
X002630Y009976D01*
X002480Y009976D01*
X002405Y009901D01*
X002405Y009826D01*
X002480Y009751D01*
X002630Y009751D01*
X002705Y009676D01*
X002705Y009601D01*
X002630Y009526D01*
X002480Y009526D01*
X002405Y009601D01*
X007995Y008726D02*
X007995Y008651D01*
X001502Y004288D02*
X001502Y002713D01*
X001501Y002713D02*
X001545Y002652D01*
X001591Y002594D01*
X001640Y002537D01*
X001692Y002484D01*
X001747Y002433D01*
X001805Y002385D01*
X001865Y002341D01*
X001927Y002299D01*
X001991Y002261D01*
X002057Y002226D01*
X002125Y002195D01*
X002195Y002168D01*
X002266Y002144D01*
X002338Y002124D01*
X002411Y002107D01*
X002484Y002095D01*
X002559Y002086D01*
X002633Y002082D01*
X002708Y002081D01*
X002783Y002085D01*
X002857Y002092D01*
X002931Y002103D01*
X003004Y002118D01*
X003077Y002137D01*
X003148Y002159D01*
X003218Y002186D01*
X003286Y002216D01*
X003353Y002249D01*
X003418Y002286D01*
X003481Y002326D01*
X003542Y002370D01*
X003600Y002417D01*
X003656Y002467D01*
X003709Y002519D01*
X003759Y002575D01*
X003806Y002632D01*
X003851Y002693D01*
X003891Y002755D01*
X003929Y002820D01*
X003963Y002887D01*
X003994Y002955D01*
X004021Y003024D01*
X004044Y003096D01*
X004063Y003168D01*
X004079Y003241D01*
X004091Y003315D01*
X004099Y003389D01*
X004103Y003464D01*
X004103Y003538D01*
X004099Y003613D01*
X004091Y003687D01*
X004079Y003761D01*
X004063Y003834D01*
X004044Y003906D01*
X004021Y003978D01*
X003994Y004047D01*
X003963Y004115D01*
X003929Y004182D01*
X003891Y004247D01*
X003851Y004309D01*
X003806Y004370D01*
X003759Y004427D01*
X003709Y004483D01*
X003656Y004535D01*
X003600Y004585D01*
X003542Y004632D01*
X003481Y004676D01*
X003418Y004716D01*
X003353Y004753D01*
X003286Y004786D01*
X003218Y004816D01*
X003148Y004843D01*
X003077Y004865D01*
X003004Y004884D01*
X002931Y004899D01*
X002857Y004910D01*
X002783Y004917D01*
X002708Y004921D01*
X002633Y004920D01*
X002559Y004916D01*
X002484Y004907D01*
X002411Y004895D01*
X002338Y004878D01*
X002266Y004858D01*
X002195Y004834D01*
X002125Y004807D01*
X002057Y004776D01*
X001991Y004741D01*
X001927Y004703D01*
X001865Y004661D01*
X001805Y004617D01*
X001747Y004569D01*
X001692Y004518D01*
X001640Y004465D01*
X001591Y004408D01*
X001545Y004350D01*
X001501Y004289D01*
X004826Y003571D02*
X005096Y003571D01*
X005096Y003481D02*
X005096Y003661D01*
X004916Y003481D02*
X004826Y003571D01*
X004871Y003367D02*
X004961Y003367D01*
X005006Y003322D01*
X005006Y003186D01*
X005096Y003186D02*
X004826Y003186D01*
X004826Y003322D01*
X004871Y003367D01*
X005006Y003277D02*
X005096Y003367D01*
X005676Y003381D02*
X005676Y003472D01*
X005721Y003517D01*
X005766Y003517D01*
X005811Y003472D01*
X005856Y003517D01*
X005901Y003517D01*
X005946Y003472D01*
X005946Y003381D01*
X005901Y003336D01*
X005946Y003222D02*
X005946Y003042D01*
X005946Y003132D02*
X005676Y003132D01*
X005766Y003042D01*
X005721Y003336D02*
X005676Y003381D01*
X005811Y003427D02*
X005811Y003472D01*
X005901Y003631D02*
X005721Y003631D01*
X005676Y003676D01*
X005676Y003766D01*
X005721Y003811D01*
X005901Y003631D01*
X005946Y003676D01*
X005946Y003766D01*
X005901Y003811D01*
X005721Y003811D01*
X006826Y003566D02*
X006826Y003476D01*
X006871Y003431D01*
X006871Y003317D02*
X006961Y003317D01*
X007006Y003272D01*
X007006Y003136D01*
X007096Y003136D02*
X006826Y003136D01*
X006826Y003272D01*
X006871Y003317D01*
X007006Y003227D02*
X007096Y003317D01*
X007096Y003431D02*
X006916Y003611D01*
X006871Y003611D01*
X006826Y003566D01*
X007096Y003611D02*
X007096Y003431D01*
X007676Y003472D02*
X007676Y003381D01*
X007721Y003336D01*
X007811Y003427D02*
X007811Y003472D01*
X007856Y003517D01*
X007901Y003517D01*
X007946Y003472D01*
X007946Y003381D01*
X007901Y003336D01*
X007946Y003222D02*
X007946Y003042D01*
X007946Y003132D02*
X007676Y003132D01*
X007766Y003042D01*
X007811Y003472D02*
X007766Y003517D01*
X007721Y003517D01*
X007676Y003472D01*
X007721Y003631D02*
X007676Y003676D01*
X007676Y003766D01*
X007721Y003811D01*
X007901Y003631D01*
X007946Y003676D01*
X007946Y003766D01*
X007901Y003811D01*
X007721Y003811D01*
X007721Y003631D02*
X007901Y003631D01*
X008876Y003566D02*
X008876Y003476D01*
X008921Y003431D01*
X008921Y003317D02*
X009011Y003317D01*
X009056Y003272D01*
X009056Y003136D01*
X009146Y003136D02*
X008876Y003136D01*
X008876Y003272D01*
X008921Y003317D01*
X009056Y003227D02*
X009146Y003317D01*
X009101Y003431D02*
X009146Y003476D01*
X009146Y003566D01*
X009101Y003611D01*
X009056Y003611D01*
X009011Y003566D01*
X009011Y003521D01*
X009011Y003566D02*
X008966Y003611D01*
X008921Y003611D01*
X008876Y003566D01*
X009676Y003472D02*
X009676Y003381D01*
X009721Y003336D01*
X009811Y003427D02*
X009811Y003472D01*
X009856Y003517D01*
X009901Y003517D01*
X009946Y003472D01*
X009946Y003381D01*
X009901Y003336D01*
X009946Y003222D02*
X009946Y003042D01*
X009946Y003132D02*
X009676Y003132D01*
X009766Y003042D01*
X009811Y003472D02*
X009766Y003517D01*
X009721Y003517D01*
X009676Y003472D01*
X009721Y003631D02*
X009676Y003676D01*
X009676Y003766D01*
X009721Y003811D01*
X009901Y003631D01*
X009946Y003676D01*
X009946Y003766D01*
X009901Y003811D01*
X009721Y003811D01*
X009721Y003631D02*
X009901Y003631D01*
X016145Y005616D02*
X016450Y005616D01*
X016552Y005718D01*
X016552Y005819D01*
X016450Y005921D01*
X016145Y005921D01*
X016450Y005921D02*
X016552Y006023D01*
X016552Y006125D01*
X016450Y006226D01*
X016145Y006226D01*
X016145Y005616D01*
X016753Y005616D02*
X016753Y006023D01*
X016956Y006226D01*
X017160Y006023D01*
X017160Y005616D01*
X017160Y005921D02*
X016753Y005921D01*
X017360Y006226D02*
X017767Y006226D01*
X017564Y006226D02*
X017564Y005616D01*
X017968Y005616D02*
X018375Y005616D01*
X018172Y005616D02*
X018172Y006226D01*
X017968Y006023D01*
D15*
X019593Y005487D02*
X019900Y005487D01*
X013862Y005487D02*
X013555Y005487D01*
X013709Y005641D02*
X013709Y005334D01*
X003709Y005171D02*
X003402Y005171D01*
X003555Y005171D02*
X003555Y005631D01*
X003402Y005478D01*
X003248Y005554D02*
X003172Y005631D01*
X002941Y005631D01*
X002941Y005171D01*
X003172Y005171D01*
X003248Y005247D01*
X003248Y005554D01*
X002788Y005631D02*
X002481Y005631D01*
X002481Y005171D01*
X002788Y005171D01*
X002635Y005401D02*
X002481Y005401D01*
X002328Y005171D02*
X002021Y005171D01*
X002021Y005631D01*
D16*
X010046Y008314D02*
X010094Y008266D01*
X010287Y008266D01*
X010336Y008314D01*
X010336Y008411D01*
X010287Y008459D01*
X010336Y008560D02*
X010336Y008754D01*
X010336Y008657D02*
X010046Y008657D01*
X010142Y008560D01*
X010094Y008459D02*
X010046Y008411D01*
X010046Y008314D01*
M02*
