%
M48
M72
T01C0.0276
T02C0.0320
T03C0.0354
T04C0.0394
T05C0.0400
T06C0.0512
%
T01
X10801Y8001
X10801Y9001
T02
X9301Y10001
X8301Y10001
X7301Y10001
X6301Y10001
X6301Y7001
X7301Y7001
X8301Y7001
X9301Y7001
T03
X5801Y1501
X7801Y1501
X9801Y1501
X9801Y5501
X7801Y5501
X5801Y5501
T04
X3982Y3501
X3194Y3501
X2407Y3501
X1620Y3501
T05
X1521Y7111
X4081Y7111
X4081Y8891
X1521Y8891
T06
X12927Y5501
X20801Y5501
M30
